RC-Regular.ufo
<glyph name="exclam" format="1">
  <advance width="322"/>
  <unicode hex="0021"/>
  <outline>
    <contour>
      <point x="110" y="515" type="line"/>
      <point x="126" y="210" type="line"/>
      <point x="196" y="210" type="line"/>
      <point x="212" y="515" type="line"/>
      <point x="212" y="690" type="line"/>
      <point x="110" y="690" type="line"/>
    </contour>
    <component base="period" xOffset="50"/>
  </outline>
</glyph>
<glyph name="numbersign" format="1">
  <advance width="738"/>
  <unicode hex="0023"/>
  <outline>
    <contour>
      <point x="285" y="690" type="line"/>
      <point x="117" y="0" type="line"/>
      <point x="203" y="0" type="line"/>
      <point x="371" y="690" type="line"/>
    </contour>
    <contour>
      <point x="535" y="690" type="line"/>
      <point x="367" y="0" type="line"/>
      <point x="453" y="0" type="line"/>
      <point x="621" y="690" type="line"/>
    </contour>
    <contour>
      <point x="65" y="278" type="line"/>
      <point x="65" y="202" type="line"/>
      <point x="621" y="202" type="line"/>
      <point x="621" y="278" type="line"/>
    </contour>
    <contour>
      <point x="117" y="488" type="line"/>
      <point x="117" y="412" type="line"/>
      <point x="673" y="412" type="line"/>
      <point x="673" y="488" type="line"/>
    </contour>
  </outline>
</glyph>
<glyph name="dollar" format="1">
  <advance width="660"/>
  <unicode hex="0024"/>
  <outline>
    <contour>
      <point x="587" y="183" type="curve"/>
      <point x="587" y="271"/>
      <point x="525" y="350"/>
      <point x="348" y="403" type="curve" smooth="yes"/>
      <point x="224" y="440"/>
      <point x="191" y="477"/>
      <point x="191" y="522" type="curve"/>
      <point x="191" y="572"/>
      <point x="236" y="617"/>
      <point x="325" y="617" type="curve" smooth="yes"/>
      <point x="396" y="617"/>
      <point x="458" y="589"/>
      <point x="508" y="541" type="curve"/>
      <point x="563" y="613" type="line"/>
      <point x="499" y="668"/>
      <point x="411" y="700"/>
      <point x="332" y="700" type="curve"/>
      <point x="193" y="700"/>
      <point x="98" y="615"/>
      <point x="98" y="512" type="curve"/>
      <point x="98" y="426"/>
      <point x="148" y="359"/>
      <point x="320" y="307" type="curve" smooth="yes"/>
      <point x="451" y="267"/>
      <point x="488" y="224"/>
      <point x="488" y="171" type="curve"/>
      <point x="488" y="120"/>
      <point x="439" y="77"/>
      <point x="346" y="77" type="curve"/>
      <point x="256" y="77"/>
      <point x="182" y="108"/>
      <point x="124" y="163" type="curve"/>
      <point x="68" y="94" type="line"/>
      <point x="130" y="33"/>
      <point x="238" y="-10"/>
      <point x="338" y="-10" type="curve"/>
      <point x="498" y="-10"/>
      <point x="587" y="76"/>
    </contour>
    <contour>
      <point x="379" y="790" type="line"/>
      <point x="303" y="790" type="line"/>
      <point x="303" y="-100" type="line"/>
      <point x="379" y="-100" type="line"/>
    </contour>
  </outline>
</glyph>
<glyph name="asterisk" format="1">
  <advance width="598"/>
  <unicode hex="002A"/>
  <outline>
    <contour>
      <point x="468" y="325" type="line"/>
      <point x="346" y="470" type="line"/>
      <point x="533" y="517" type="line"/>
      <point x="505" y="602" type="line"/>
      <point x="331" y="531" type="line"/>
      <point x="344" y="720" type="line"/>
      <point x="254" y="720" type="line"/>
      <point x="267" y="531" type="line"/>
      <point x="93" y="602" type="line"/>
      <point x="65" y="517" type="line"/>
      <point x="252" y="470" type="line"/>
      <point x="130" y="325" type="line"/>
      <point x="203" y="272" type="line"/>
      <point x="299" y="426" type="line"/>
      <point x="395" y="272" type="line"/>
    </contour>
  </outline>
</glyph>
<glyph name="plus" format="1">
  <advance width="660"/>
  <unicode hex="002B"/>
  <outline>
    <contour>
      <point x="103" y="250" type="line"/>
      <point x="557" y="250" type="line"/>
      <point x="557" y="330" type="line"/>
      <point x="103" y="330" type="line"/>
    </contour>
    <contour>
      <point x="289" y="515" type="line"/>
      <point x="289" y="65" type="line"/>
      <point x="371" y="65" type="line"/>
      <point x="371" y="515" type="line"/>
    </contour>
  </outline>
</glyph>
<glyph name="comma" format="1">
  <advance width="222"/>
  <unicode hex="002C"/>
  <outline>
    <contour>
      <point x="113" y="-145" type="line"/>
      <point x="158" y="-25" type="line" smooth="yes"/>
      <point x="168" y="2"/>
      <point x="174" y="22"/>
      <point x="174" y="44" type="curve"/>
      <point x="174" y="89"/>
      <point x="148" y="115"/>
      <point x="111" y="115" type="curve" smooth="yes"/>
      <point x="76" y="115"/>
      <point x="48" y="89"/>
      <point x="48" y="53" type="curve"/>
      <point x="48" y="20"/>
      <point x="68" y="0"/>
      <point x="92" y="-7" type="curve"/>
      <point x="92" y="-7"/>
      <point x="57" y="-145"/>
      <point x="57" y="-145" type="curve"/>
    </contour>
  </outline>
</glyph>
<glyph name="hyphen" format="1">
  <advance width="368"/>
  <unicode hex="002D"/>
  <outline>
    <contour>
      <point x="60" y="315" type="line"/>
      <point x="60" y="235" type="line"/>
      <point x="308" y="235" type="line"/>
      <point x="308" y="315" type="line"/>
    </contour>
  </outline>
</glyph>
<glyph name="period" format="1">
  <advance width="222"/>
  <unicode hex="002E"/>
  <outline>
    <contour>
      <point x="111" y="-10" type="curve" smooth="yes"/>
      <point x="148" y="-10"/>
      <point x="172" y="17"/>
      <point x="172" y="52" type="curve" smooth="yes"/>
      <point x="172" y="88"/>
      <point x="148" y="115"/>
      <point x="111" y="115" type="curve" smooth="yes"/>
      <point x="76" y="115"/>
      <point x="50" y="88"/>
      <point x="50" y="52" type="curve" smooth="yes"/>
      <point x="50" y="17"/>
      <point x="76" y="-10"/>
    </contour>
  </outline>
</glyph>
<glyph name="zero" format="1">
  <advance width="660"/>
  <unicode hex="0030"/>
  <outline>
    <contour>
      <point x="67" y="345" type="curve" smooth="yes"/>
      <point x="67" y="102"/>
      <point x="186" y="-10"/>
      <point x="330" y="-10" type="curve" smooth="yes"/>
      <point x="474" y="-10"/>
      <point x="593" y="102"/>
      <point x="593" y="345" type="curve" smooth="yes"/>
      <point x="593" y="588"/>
      <point x="474" y="700"/>
      <point x="330" y="700" type="curve" smooth="yes"/>
      <point x="186" y="700"/>
      <point x="67" y="588"/>
    </contour>
    <contour>
      <point x="166" y="345" type="curve" smooth="yes"/>
      <point x="166" y="532"/>
      <point x="236" y="611"/>
      <point x="330" y="611" type="curve" smooth="yes"/>
      <point x="424" y="611"/>
      <point x="494" y="532"/>
      <point x="494" y="345" type="curve" smooth="yes"/>
      <point x="494" y="158"/>
      <point x="424" y="79"/>
      <point x="330" y="79" type="curve" smooth="yes"/>
      <point x="236" y="79"/>
      <point x="166" y="158"/>
    </contour>
  </outline>
</glyph>
<glyph name="one" format="1">
  <advance width="660"/>
  <unicode hex="0031"/>
  <outline>
    <contour>
      <point x="287" y="637" type="line"/>
      <point x="287" y="0" type="line"/>
      <point x="383" y="0" type="line"/>
      <point x="383" y="690" type="line"/>
      <point x="313" y="690" type="line"/>
    </contour>
    <contour>
      <point x="313" y="690" type="line"/>
      <point x="112" y="599" type="line"/>
      <point x="146" y="521" type="line"/>
      <point x="341" y="609" type="line"/>
    </contour>
    <contour>
      <point x="548" y="81" type="line"/>
      <point x="112" y="81" type="line"/>
      <point x="112" y="0" type="line"/>
      <point x="548" y="0" type="line"/>
    </contour>
  </outline>
</glyph>
<glyph name="three" format="1">
  <advance width="660"/>
  <unicode hex="0033"/>
  <outline>
    <contour>
      <point x="294" y="329" type="line" smooth="yes"/>
      <point x="391" y="329"/>
      <point x="463" y="283"/>
      <point x="463" y="205" type="curve" smooth="yes"/>
      <point x="463" y="123"/>
      <point x="395" y="81"/>
      <point x="309" y="81" type="curve"/>
      <point x="238" y="81"/>
      <point x="182" y="103"/>
      <point x="138" y="152" type="curve"/>
      <point x="73" y="84" type="line"/>
      <point x="136" y="20"/>
      <point x="213" y="-10"/>
      <point x="309" y="-10" type="curve"/>
      <point x="446" y="-10"/>
      <point x="562" y="66"/>
      <point x="562" y="205" type="curve" smooth="yes"/>
      <point x="562" y="340"/>
      <point x="460" y="408"/>
      <point x="323" y="408" type="curve" smooth="yes"/>
      <point x="264" y="408" type="line"/>
      <point x="211" y="390" type="line"/>
      <point x="211" y="329" type="line"/>
    </contour>
    <contour>
      <point x="95" y="599" type="line"/>
      <point x="490" y="599" type="line"/>
      <point x="539" y="624" type="line"/>
      <point x="539" y="690" type="line"/>
      <point x="95" y="690" type="line"/>
    </contour>
    <contour>
      <point x="490" y="690" type="line"/>
      <point x="211" y="390" type="line"/>
      <point x="316" y="390" type="line"/>
      <point x="539" y="624" type="line"/>
    </contour>
  </outline>
</glyph>
<glyph name="seven" format="1">
  <advance width="660"/>
  <unicode hex="0037"/>
  <outline>
    <contour>
      <point x="90" y="599" type="line"/>
      <point x="495" y="599" type="line"/>
      <point x="544" y="624" type="line"/>
      <point x="544" y="690" type="line"/>
      <point x="90" y="690" type="line"/>
    </contour>
    <contour>
      <point x="196" y="0" type="line"/>
      <point x="302" y="0" type="line"/>
      <point x="544" y="624" type="line"/>
      <point x="479" y="690" type="line"/>
    </contour>
  </outline>
</glyph>
<glyph name="eight" format="1">
  <advance width="660"/>
  <unicode hex="0038"/>
  <outline>
    <contour>
      <point x="84" y="173" type="curve"/>
      <point x="84" y="266"/>
      <point x="156" y="339"/>
      <point x="279" y="357" type="curve"/>
      <point x="324" y="321" type="line"/>
      <point x="232" y="302"/>
      <point x="178" y="241"/>
      <point x="178" y="179" type="curve"/>
      <point x="178" y="115"/>
      <point x="235" y="74"/>
      <point x="328" y="74" type="curve"/>
      <point x="429" y="74"/>
      <point x="477" y="119"/>
      <point x="477" y="169" type="curve"/>
      <point x="477" y="221"/>
      <point x="446" y="271"/>
      <point x="323" y="312" type="curve" smooth="yes"/>
      <point x="161" y="366"/>
      <point x="108" y="428"/>
      <point x="108" y="514" type="curve"/>
      <point x="108" y="617"/>
      <point x="196" y="700"/>
      <point x="329" y="700" type="curve"/>
      <point x="460" y="700"/>
      <point x="549" y="624"/>
      <point x="549" y="522" type="curve"/>
      <point x="549" y="435"/>
      <point x="483" y="373"/>
      <point x="360" y="357" type="curve"/>
      <point x="315" y="393" type="line"/>
      <point x="407" y="409"/>
      <point x="455" y="457"/>
      <point x="455" y="515" type="curve"/>
      <point x="455" y="572"/>
      <point x="410" y="619"/>
      <point x="329" y="619" type="curve"/>
      <point x="239" y="619"/>
      <point x="201" y="574"/>
      <point x="201" y="524" type="curve"/>
      <point x="201" y="479"/>
      <point x="237" y="439"/>
      <point x="351" y="402" type="curve" smooth="yes"/>
      <point x="521" y="347"/>
      <point x="576" y="268"/>
      <point x="576" y="181" type="curve"/>
      <point x="576" y="75"/>
      <point x="489" y="-10"/>
      <point x="328" y="-10" type="curve"/>
      <point x="177" y="-10"/>
      <point x="84" y="63"/>
    </contour>
  </outline>
</glyph>
<glyph name="nine" format="1">
  <advance width="660"/>
  <unicode hex="0039"/>
  <outline>
    <contour>
      <point x="324" y="700" type="curve"/>
      <point x="193" y="700"/>
      <point x="85" y="603"/>
      <point x="85" y="465" type="curve" smooth="yes"/>
      <point x="85" y="333"/>
      <point x="177" y="248"/>
      <point x="301" y="248" type="curve" smooth="yes"/>
      <point x="374" y="248"/>
      <point x="445" y="286"/>
      <point x="484" y="346" type="curve"/>
      <point x="484" y="420" type="line"/>
      <point x="442" y="370"/>
      <point x="385" y="340"/>
      <point x="317" y="340" type="curve" smooth="yes"/>
      <point x="242" y="340"/>
      <point x="184" y="390"/>
      <point x="184" y="468" type="curve" smooth="yes"/>
      <point x="184" y="552"/>
      <point x="246" y="614"/>
      <point x="319" y="614" type="curve"/>
      <point x="413" y="614"/>
      <point x="479" y="530"/>
      <point x="479" y="370" type="curve"/>
      <point x="479" y="161"/>
      <point x="376" y="79"/>
      <point x="285" y="79" type="curve"/>
      <point x="232" y="79"/>
      <point x="199" y="95"/>
      <point x="164" y="121" type="curve"/>
      <point x="115" y="41" type="line"/>
      <point x="162" y="7"/>
      <point x="217" y="-10"/>
      <point x="275" y="-10" type="curve"/>
      <point x="426" y="-10"/>
      <point x="578" y="116"/>
      <point x="578" y="370" type="curve"/>
      <point x="578" y="580"/>
      <point x="470" y="700"/>
    </contour>
  </outline>
</glyph>
<glyph name="less" format="1">
  <advance width="660"/>
  <unicode hex="003C"/>
  <outline>
    <contour>
      <point x="527" y="55" type="line"/>
      <point x="527" y="148" type="line"/>
      <point x="184" y="305" type="line"/>
      <point x="102" y="307" type="line"/>
      <point x="102" y="254" type="line"/>
    </contour>
    <contour>
      <point x="527" y="525" type="line"/>
      <point x="102" y="326" type="line"/>
      <point x="102" y="281" type="line"/>
      <point x="184" y="280" type="line"/>
      <point x="527" y="435" type="line"/>
    </contour>
  </outline>
</glyph>
<glyph name="greater" format="1">
  <advance width="660"/>
  <unicode hex="003E"/>
  <outline>
    <contour>
      <point x="133" y="525" type="line"/>
      <point x="133" y="432" type="line"/>
      <point x="476" y="275" type="line"/>
      <point x="558" y="273" type="line"/>
      <point x="558" y="326" type="line"/>
    </contour>
    <contour>
      <point x="133" y="55" type="line"/>
      <point x="558" y="254" type="line"/>
      <point x="558" y="299" type="line"/>
      <point x="476" y="300" type="line"/>
      <point x="133" y="145" type="line"/>
    </contour>
  </outline>
</glyph>
<glyph name="question" format="1">
  <advance width="508"/>
  <unicode hex="003F"/>
  <outline>
    <contour>
      <point x="25" y="588" type="curve"/>
      <point x="88" y="522" type="line"/>
      <point x="131" y="578"/>
      <point x="175" y="609"/>
      <point x="243" y="609" type="curve"/>
      <point x="305" y="609"/>
      <point x="349" y="567"/>
      <point x="349" y="510" type="curve"/>
      <point x="349" y="462"/>
      <point x="316" y="432"/>
      <point x="257" y="392" type="curve" smooth="yes"/>
      <point x="214" y="363"/>
      <point x="192" y="328"/>
      <point x="197" y="273" type="curve" smooth="yes"/>
      <point x="203" y="210" type="line"/>
      <point x="282" y="210" type="line"/>
      <point x="285" y="260" type="line" smooth="yes"/>
      <point x="288" y="304"/>
      <point x="297" y="320"/>
      <point x="336" y="343" type="curve" smooth="yes"/>
      <point x="402" y="382"/>
      <point x="448" y="439"/>
      <point x="448" y="510" type="curve"/>
      <point x="448" y="626"/>
      <point x="357" y="700"/>
      <point x="246" y="700" type="curve"/>
      <point x="152" y="700"/>
      <point x="84" y="659"/>
    </contour>
    <component base="period" xOffset="132"/>
  </outline>
</glyph>
<glyph name="at" format="1">
  <advance width="982"/>
  <unicode hex="0040"/>
  <outline>
    <contour>
      <point x="65" y="252" type="curve"/>
      <point x="65" y="-15"/>
      <point x="227" y="-195"/>
      <point x="506" y="-195" type="curve"/>
      <point x="599" y="-195"/>
      <point x="695" y="-171"/>
      <point x="758" y="-138" type="curve"/>
      <point x="727" y="-66" type="line"/>
      <point x="656" y="-99"/>
      <point x="587" y="-119"/>
      <point x="506" y="-119" type="curve"/>
      <point x="275" y="-119"/>
      <point x="147" y="35"/>
      <point x="147" y="249" type="curve"/>
      <point x="147" y="476"/>
      <point x="292" y="624"/>
      <point x="502" y="624" type="curve"/>
      <point x="718" y="624"/>
      <point x="835" y="466"/>
      <point x="835" y="259" type="curve"/>
      <point x="835" y="121"/>
      <point x="793" y="66"/>
      <point x="739" y="66" type="curve"/>
      <point x="708" y="66"/>
      <point x="684" y="86"/>
      <point x="684" y="133" type="curve"/>
      <point x="684" y="373" type="line" smooth="yes"/>
      <point x="684" y="401"/>
      <point x="686" y="422"/>
      <point x="691" y="451" type="curve"/>
      <point x="699" y="495" type="line"/>
      <point x="613" y="495" type="line"/>
      <point x="593" y="400" type="line"/>
      <point x="592" y="363" type="line"/>
      <point x="592" y="152" type="line"/>
      <point x="593" y="115" type="line"/>
      <point x="607" y="24"/>
      <point x="671" y="-10"/>
      <point x="735" y="-10" type="curve"/>
      <point x="823" y="-10"/>
      <point x="917" y="56"/>
      <point x="917" y="259" type="curve"/>
      <point x="917" y="513"/>
      <point x="759" y="700"/>
      <point x="502" y="700" type="curve"/>
      <point x="249" y="700"/>
      <point x="65" y="516"/>
    </contour>
    <contour>
      <point x="263" y="253" type="curve" smooth="yes"/>
      <point x="263" y="101"/>
      <point x="345" y="10"/>
      <point x="445" y="10" type="curve" smooth="yes"/>
      <point x="507" y="10"/>
      <point x="566" y="49"/>
      <point x="607" y="105" type="curve"/>
      <point x="607" y="174" type="line"/>
      <point x="566" y="125"/>
      <point x="517" y="95"/>
      <point x="470" y="95" type="curve" smooth="yes"/>
      <point x="406" y="95"/>
      <point x="357" y="152"/>
      <point x="357" y="256" type="curve" smooth="yes"/>
      <point x="357" y="357"/>
      <point x="404" y="428"/>
      <point x="481" y="428" type="curve" smooth="yes"/>
      <point x="536" y="428"/>
      <point x="592" y="378"/>
      <point x="592" y="263" type="curve"/>
      <point x="632" y="273" type="line"/>
      <point x="632" y="441"/>
      <point x="547" y="505"/>
      <point x="466" y="505" type="curve" smooth="yes"/>
      <point x="343" y="505"/>
      <point x="263" y="411"/>
    </contour>
  </outline>
</glyph>
<glyph name="B" format="1">
  <advance width="657"/>
  <unicode hex="0042"/>
  <outline>
    <contour>
      <point x="100" y="0" type="line"/>
      <point x="196" y="0" type="line"/>
      <point x="196" y="690" type="line"/>
      <point x="100" y="690" type="line"/>
    </contour>
    <contour>
      <point x="150" y="0" type="line"/>
      <point x="358" y="0" type="line" smooth="yes"/>
      <point x="484" y="0"/>
      <point x="587" y="68"/>
      <point x="587" y="195" type="curve" smooth="yes"/>
      <point x="587" y="315"/>
      <point x="484" y="380"/>
      <point x="358" y="380" type="curve" smooth="yes"/>
      <point x="150" y="380" type="line"/>
      <point x="150" y="314" type="line"/>
      <point x="353" y="314" type="line" smooth="yes"/>
      <point x="430" y="314"/>
      <point x="488" y="273"/>
      <point x="488" y="200" type="curve" smooth="yes"/>
      <point x="488" y="126"/>
      <point x="429" y="84"/>
      <point x="353" y="84" type="curve" smooth="yes"/>
      <point x="150" y="84" type="line"/>
    </contour>
    <contour>
      <point x="150" y="335" type="line"/>
      <point x="340" y="335" type="line"/>
      <point x="461" y="335"/>
      <point x="559" y="395"/>
      <point x="559" y="505" type="curve" smooth="yes"/>
      <point x="559" y="625"/>
      <point x="461" y="690"/>
      <point x="340" y="690" type="curve" smooth="yes"/>
      <point x="150" y="690" type="line"/>
      <point x="150" y="606" type="line"/>
      <point x="335" y="606" type="line" smooth="yes"/>
      <point x="407" y="606"/>
      <point x="460" y="567"/>
      <point x="460" y="500" type="curve" smooth="yes"/>
      <point x="460" y="433"/>
      <point x="406" y="396"/>
      <point x="335" y="396" type="curve" smooth="yes"/>
      <point x="150" y="396" type="line"/>
    </contour>
  </outline>
</glyph>
<glyph name="D" format="1">
  <advance width="701"/>
  <unicode hex="0044"/>
  <outline>
    <contour>
      <point x="323" y="0" type="line"/>
      <point x="500.14093959731554" y="0.0"/>
      <point x="641.0" y="123.00000000000003"/>
      <point x="641" y="345" type="curve" smooth="yes"/>
      <point x="641.0" y="567.0"/>
      <point x="500.14093959731554" y="690.0"/>
      <point x="323" y="690" type="curve"/>
      <point x="150" y="690" type="line"/>
      <point x="150" y="604" type="line"/>
      <point x="318" y="604" type="line"/>
      <point x="446.47058823529414" y="604.0"/>
      <point x="542.0" y="511.0"/>
      <point x="542" y="345" type="curve" smooth="yes"/>
      <point x="542.0" y="179.0"/>
      <point x="446.47058823529414" y="86.0"/>
      <point x="318" y="86" type="curve"/>
      <point x="150" y="86" type="line"/>
      <point x="150" y="0" type="line"/>
    </contour>
    <contour>
      <point x="100" y="690" type="line"/>
      <point x="100" y="0" type="line"/>
      <point x="196" y="0" type="line"/>
      <point x="196" y="690" type="line"/>
    </contour>
  </outline>
</glyph>
<glyph name="E" format="1">
  <advance width="621"/>
  <unicode hex="0045"/>
  <outline>
    <contour>
      <point x="100" y="690" type="line"/>
      <point x="100" y="0" type="line"/>
      <point x="196" y="0" type="line"/>
      <point x="196" y="690" type="line"/>
    </contour>
    <contour>
      <point x="496" y="393" type="line"/>
      <point x="150" y="393" type="line"/>
      <point x="150" y="307" type="line"/>
      <point x="496" y="307" type="line"/>
    </contour>
    <contour>
      <point x="546" y="690" type="line"/>
      <point x="150" y="690" type="line"/>
      <point x="150" y="604" type="line"/>
      <point x="546" y="604" type="line"/>
    </contour>
    <contour>
      <point x="551" y="86" type="line"/>
      <point x="150" y="86" type="line"/>
      <point x="150" y="0" type="line"/>
      <point x="551" y="0" type="line"/>
    </contour>
    <contour>
      <point x="328" y="690" type="move" name="top"/>
    </contour>
  </outline>
</glyph>
<glyph name="H" format="1">
  <advance width="736"/>
  <unicode hex="0048"/>
  <outline>
    <contour>
      <point x="100" y="690" type="line"/>
      <point x="100" y="0" type="line"/>
      <point x="196" y="0" type="line"/>
      <point x="196" y="690" type="line"/>
    </contour>
    <contour>
      <point x="540" y="690" type="line"/>
      <point x="540" y="0" type="line"/>
      <point x="636" y="0" type="line"/>
      <point x="636" y="690" type="line"/>
    </contour>
    <contour>
      <point x="586" y="393" type="line"/>
      <point x="150" y="393" type="line"/>
      <point x="150" y="307" type="line"/>
      <point x="586" y="307" type="line"/>
    </contour>
  </outline>
</glyph>
<glyph name="J" format="1">
  <advance width="573"/>
  <unicode hex="004A"/>
  <outline>
    <contour>
      <point x="483" y="236" type="curve" smooth="yes"/>
      <point x="483" y="690" type="line"/>
      <point x="389" y="690" type="line"/>
      <point x="389" y="246" type="line" smooth="yes"/>
      <point x="389" y="130"/>
      <point x="337" y="78"/>
      <point x="254" y="78" type="curve"/>
      <point x="187" y="78"/>
      <point x="140" y="119"/>
      <point x="116" y="163" type="curve"/>
      <point x="45" y="107" type="line"/>
      <point x="86" y="39"/>
      <point x="168" y="-10"/>
      <point x="255" y="-10" type="curve"/>
      <point x="382" y="-10"/>
      <point x="483" y="75"/>
    </contour>
    <contour>
      <point x="443" y="690" type="line"/>
      <point x="207" y="690" type="line"/>
      <point x="207" y="609" type="line"/>
      <point x="443" y="609" type="line"/>
    </contour>
  </outline>
</glyph>
<glyph name="K" format="1">
  <advance width="641.0"/>
  <unicode hex="004B"/>
  <outline>
    <contour>
      <point x="100" y="690" type="line"/>
      <point x="100" y="0" type="line"/>
      <point x="196" y="0" type="line"/>
      <point x="196" y="690" type="line"/>
    </contour>
    <contour>
      <point x="489" y="690" type="line"/>
      <point x="180" y="331" type="line"/>
      <point x="180" y="207" type="line"/>
      <point x="606" y="690" type="line"/>
    </contour>
    <contour>
      <point x="507" y="0" type="line"/>
      <point x="626.0" y="0.0" type="line"/>
      <point x="331" y="402" type="line"/>
      <point x="270" y="333" type="line"/>
    </contour>
  </outline>
</glyph>
<glyph name="N" format="1">
  <advance width="746"/>
  <unicode hex="004E"/>
  <outline>
    <contour>
      <point x="100" y="0" type="line"/>
      <point x="196" y="0" type="line"/>
      <point x="196" y="690" type="line"/>
      <point x="100" y="690" type="line"/>
    </contour>
    <contour>
      <point x="144" y="690" type="line"/>
      <point x="500" y="0" type="line"/>
      <point x="602" y="0" type="line"/>
      <point x="246" y="690" type="line"/>
    </contour>
    <contour>
      <point x="550" y="0" type="line"/>
      <point x="646" y="0" type="line"/>
      <point x="646" y="690" type="line"/>
      <point x="550" y="690" type="line"/>
    </contour>
    <contour>
      <point x="389" y="690" type="move" name="top"/>
    </contour>
  </outline>
</glyph>
<glyph name="O" format="1">
  <advance width="726"/>
  <unicode hex="004F"/>
  <outline>
    <contour>
      <point x="363" y="-10" type="curve" smooth="yes"/>
      <point x="529" y="-10"/>
      <point x="666" y="112"/>
      <point x="666" y="345" type="curve" smooth="yes"/>
      <point x="666" y="578"/>
      <point x="529" y="700"/>
      <point x="363" y="700" type="curve" smooth="yes"/>
      <point x="197" y="700"/>
      <point x="60" y="578"/>
      <point x="60" y="345" type="curve" smooth="yes"/>
      <point x="60" y="112"/>
      <point x="197" y="-10"/>
    </contour>
    <contour>
      <point x="363" y="79" type="curve" smooth="yes"/>
      <point x="246" y="79"/>
      <point x="159" y="168"/>
      <point x="159" y="345" type="curve" smooth="yes"/>
      <point x="159" y="522"/>
      <point x="246" y="611"/>
      <point x="363" y="611" type="curve" smooth="yes"/>
      <point x="480" y="611"/>
      <point x="567" y="522"/>
      <point x="567" y="345" type="curve" smooth="yes"/>
      <point x="567" y="168"/>
      <point x="480" y="79"/>
    </contour>
    <contour>
      <point x="363" y="690" type="move" name="top"/>
    </contour>
  </outline>
</glyph>
<glyph name="R" format="1">
  <advance width="650"/>
  <unicode hex="0052"/>
  <outline>
    <contour>
      <point x="100" y="0" type="line"/>
      <point x="196" y="0" type="line"/>
      <point x="196" y="690" type="line"/>
      <point x="100" y="690" type="line"/>
    </contour>
    <contour>
      <point x="150" y="260" type="line"/>
      <point x="333" y="260" type="line" smooth="yes"/>
      <point x="468" y="260"/>
      <point x="577" y="335"/>
      <point x="577" y="475" type="curve" smooth="yes"/>
      <point x="577" y="614"/>
      <point x="468" y="690"/>
      <point x="333" y="690" type="curve" smooth="yes"/>
      <point x="150" y="690" type="line"/>
      <point x="150" y="604" type="line"/>
      <point x="328" y="604" type="line" smooth="yes"/>
      <point x="414" y="604"/>
      <point x="478" y="558"/>
      <point x="478" y="475" type="curve" smooth="yes"/>
      <point x="478" y="391"/>
      <point x="413" y="343"/>
      <point x="328" y="343" type="curve" smooth="yes"/>
      <point x="150" y="343" type="line"/>
    </contour>
    <contour>
      <point x="301" y="290" type="line"/>
      <point x="481" y="0" type="line"/>
      <point x="595" y="0" type="line"/>
      <point x="406" y="290" type="line"/>
    </contour>
  </outline>
</glyph>
<glyph name="U" format="1">
  <advance width="706"/>
  <unicode hex="0055"/>
  <outline>
    <contour>
      <point x="616" y="250" type="curve" smooth="yes"/>
      <point x="616" y="690" type="line"/>
      <point x="522" y="690" type="line"/>
      <point x="522" y="260" type="line" smooth="yes"/>
      <point x="522" y="143"/>
      <point x="456" y="79"/>
      <point x="354" y="79" type="curve" smooth="yes"/>
      <point x="252" y="79"/>
      <point x="186" y="143"/>
      <point x="186" y="260" type="curve" smooth="yes"/>
      <point x="186" y="690" type="line"/>
      <point x="90" y="690" type="line"/>
      <point x="90" y="250" type="line" smooth="yes"/>
      <point x="90" y="83"/>
      <point x="204" y="-10"/>
      <point x="353" y="-10" type="curve" smooth="yes"/>
      <point x="502" y="-10"/>
      <point x="616" y="83"/>
    </contour>
    <contour>
      <point x="354" y="690" type="move" name="top"/>
    </contour>
  </outline>
</glyph>
<glyph name="V" format="1">
  <advance width="636"/>
  <unicode hex="0056"/>
  <outline>
    <contour>
      <point x="20" y="690" type="line"/>
      <point x="278" y="0" type="line"/>
      <point x="333" y="0" type="line"/>
      <point x="337" y="90" type="line"/>
      <point x="124" y="690" type="line"/>
    </contour>
    <contour>
      <point x="616" y="690" type="line"/>
      <point x="516" y="690" type="line"/>
      <point x="303" y="90" type="line"/>
      <point x="311" y="0" type="line"/>
      <point x="358" y="0" type="line"/>
    </contour>
  </outline>
</glyph>
<glyph name="W" format="1">
  <advance width="961"/>
  <unicode hex="0057"/>
  <outline>
    <contour>
      <point x="20" y="690" type="line"/>
      <point x="238" y="0" type="line"/>
      <point x="293" y="0" type="line"/>
      <point x="297" y="96" type="line"/>
      <point x="122" y="690" type="line"/>
    </contour>
    <contour>
      <point x="263" y="96" type="line"/>
      <point x="271" y="0" type="line"/>
      <point x="318" y="0" type="line"/>
      <point x="494" y="562" type="line"/>
      <point x="494" y="690" type="line"/>
      <point x="442" y="690" type="line"/>
    </contour>
    <contour>
      <point x="468" y="562" type="line"/>
      <point x="644" y="0" type="line"/>
      <point x="699" y="0" type="line"/>
      <point x="703" y="96" type="line"/>
      <point x="523" y="690" type="line"/>
      <point x="468" y="690" type="line"/>
    </contour>
    <contour>
      <point x="669" y="96" type="line"/>
      <point x="677" y="0" type="line"/>
      <point x="724" y="0" type="line"/>
      <point x="941" y="690" type="line"/>
      <point x="843" y="690" type="line"/>
    </contour>
  </outline>
</glyph>
<glyph name="X" format="1">
  <advance width="644.0"/>
  <unicode hex="0058"/>
  <outline>
    <contour>
      <point x="498" y="0" type="line"/>
      <point x="40" y="690" type="line"/>
      <point x="156" y="690" type="line"/>
      <point x="614" y="0" type="line"/>
    </contour>
    <contour>
      <point x="140" y="0" type="line"/>
      <point x="30" y="0" type="line"/>
      <point x="282" y="374" type="line"/>
      <point x="311" y="409" type="line"/>
      <point x="494" y="690" type="line"/>
      <point x="604" y="690" type="line"/>
      <point x="362" y="331" type="line"/>
      <point x="333" y="296" type="line"/>
    </contour>
  </outline>
</glyph>
<glyph name="Y" format="1">
  <advance width="616"/>
  <unicode hex="0059"/>
  <outline>
    <contour>
      <point x="15" y="690" type="line"/>
      <point x="268" y="270" type="line"/>
      <point x="323" y="270" type="line"/>
      <point x="327" y="341" type="line"/>
      <point x="125" y="690" type="line"/>
    </contour>
    <contour>
      <point x="601" y="690" type="line"/>
      <point x="495" y="690" type="line"/>
      <point x="293" y="341" type="line"/>
      <point x="301" y="270" type="line"/>
      <point x="348" y="270" type="line"/>
    </contour>
    <contour>
      <point x="260" y="320" type="line"/>
      <point x="260" y="0" type="line"/>
      <point x="356" y="0" type="line"/>
      <point x="356" y="320" type="line"/>
    </contour>
    <contour>
      <point x="310" y="690" type="move" name="top"/>
    </contour>
  </outline>
</glyph>
<glyph name="Z" format="1">
  <advance width="614"/>
  <unicode hex="005A"/>
  <outline>
    <contour>
      <point x="60" y="66" type="line"/>
      <point x="132" y="0" type="line"/>
      <point x="544" y="624" type="line"/>
      <point x="472" y="690" type="line"/>
    </contour>
    <contour>
      <point x="60" y="0" type="line"/>
      <point x="554" y="0" type="line"/>
      <point x="554" y="86" type="line"/>
      <point x="106" y="86" type="line"/>
      <point x="60" y="66" type="line"/>
    </contour>
    <contour>
      <point x="70" y="604" type="line"/>
      <point x="495" y="604" type="line"/>
      <point x="544" y="624" type="line"/>
      <point x="544" y="690" type="line"/>
      <point x="70" y="690" type="line"/>
    </contour>
  </outline>
</glyph>
<glyph name="bracketleft" format="1">
  <advance width="309"/>
  <unicode hex="005B"/>
  <outline>
    <contour>
      <point x="100" y="710" type="line"/>
      <point x="344" y="710" type="line"/>
      <point x="344" y="780" type="line"/>
      <point x="100" y="780" type="line"/>
    </contour>
    <contour>
      <point x="100" y="780" type="line"/>
      <point x="100" y="-245" type="line"/>
      <point x="182" y="-245" type="line"/>
      <point x="182" y="780" type="line"/>
    </contour>
    <contour>
      <point x="100" y="-245" type="line"/>
      <point x="344" y="-245" type="line"/>
      <point x="344" y="-175" type="line"/>
      <point x="100" y="-175" type="line"/>
    </contour>
  </outline>
</glyph>
<glyph name="bracketright" format="1">
  <advance width="309"/>
  <unicode hex="005D"/>
  <outline>
    <contour>
      <point x="-35" y="-245" type="line"/>
      <point x="209" y="-245" type="line"/>
      <point x="209" y="-175" type="line"/>
      <point x="-35" y="-175" type="line"/>
    </contour>
    <contour>
      <point x="-35" y="710" type="line"/>
      <point x="209" y="710" type="line"/>
      <point x="209" y="780" type="line"/>
      <point x="-35" y="780" type="line"/>
    </contour>
    <contour>
      <point x="127" y="-245" type="line"/>
      <point x="209" y="-245" type="line"/>
      <point x="209" y="780" type="line"/>
      <point x="127" y="780" type="line"/>
    </contour>
  </outline>
</glyph>
<glyph name="asciicircum" format="1">
  <advance width="660"/>
  <unicode hex="005E"/>
  <outline>
    <contour>
      <point x="565" y="265" type="line"/>
      <point x="366" y="690" type="line"/>
      <point x="313" y="690" type="line"/>
      <point x="315" y="608" type="line"/>
      <point x="472" y="265" type="line"/>
    </contour>
    <contour>
      <point x="95" y="265" type="line"/>
      <point x="185" y="265" type="line"/>
      <point x="340" y="608" type="line"/>
      <point x="339" y="690" type="line"/>
      <point x="294" y="690" type="line"/>
    </contour>
  </outline>
</glyph>
<glyph name="a" format="1">
  <advance width="543"/>
  <unicode hex="0061"/>
  <outline>
    <contour>
      <point x="381" y="157" type="line"/>
      <point x="334" y="105"/>
      <point x="279" y="74"/>
      <point x="222" y="74" type="curve"/>
      <point x="181" y="74"/>
      <point x="154" y="98"/>
      <point x="154" y="140" type="curve"/>
      <point x="154" y="183"/>
      <point x="185" y="224"/>
      <point x="315" y="237" type="curve" smooth="yes"/>
      <point x="374" y="243" type="line"/>
      <point x="374" y="308" type="line"/>
      <point x="311" y="306" type="line" smooth="yes"/>
      <point x="124" y="300"/>
      <point x="60" y="221"/>
      <point x="60" y="132" type="curve"/>
      <point x="60" y="44"/>
      <point x="127" y="-10"/>
      <point x="202" y="-10" type="curve"/>
      <point x="276" y="-10"/>
      <point x="342" y="31"/>
      <point x="381" y="85" type="curve"/>
    </contour>
    <contour>
      <point x="458" y="122" type="curve" smooth="yes"/>
      <point x="458" y="325" type="line" smooth="yes"/>
      <point x="458" y="459"/>
      <point x="371" y="525"/>
      <point x="258" y="525" type="curve"/>
      <point x="197" y="525"/>
      <point x="122" y="501"/>
      <point x="75" y="472" type="curve"/>
      <point x="107" y="394" type="line"/>
      <point x="152" y="419"/>
      <point x="196" y="437"/>
      <point x="249" y="437" type="curve"/>
      <point x="322" y="437"/>
      <point x="366" y="402"/>
      <point x="366" y="314" type="curve" smooth="yes"/>
      <point x="366" y="132" type="line"/>
      <point x="367" y="95" type="line"/>
      <point x="387" y="0" type="line"/>
      <point x="473" y="0" type="line"/>
      <point x="465" y="44" type="line" smooth="yes"/>
      <point x="460" y="73"/>
      <point x="458" y="94"/>
    </contour>
    <contour>
      <point x="265" y="515" type="move" name="top"/>
    </contour>
  </outline>
</glyph>
<glyph name="b" format="1">
  <advance width="586"/>
  <unicode hex="0062"/>
  <outline>
    <contour>
      <point x="142" y="222" type="line"/>
      <point x="142" y="54"/>
      <point x="232" y="-10"/>
      <point x="318" y="-10" type="curve"/>
      <point x="447" y="-10"/>
      <point x="531" y="92"/>
      <point x="531" y="262" type="curve" smooth="yes"/>
      <point x="531" y="426"/>
      <point x="444" y="525"/>
      <point x="339" y="525" type="curve" smooth="yes"/>
      <point x="273" y="525"/>
      <point x="211" y="486"/>
      <point x="167" y="430" type="curve"/>
      <point x="167" y="361" type="line"/>
      <point x="211" y="410"/>
      <point x="264" y="440"/>
      <point x="314" y="440" type="curve" smooth="yes"/>
      <point x="384" y="440"/>
      <point x="437" y="376"/>
      <point x="437" y="259" type="curve" smooth="yes"/>
      <point x="437" y="146"/>
      <point x="386" y="67"/>
      <point x="303" y="67" type="curve"/>
      <point x="243" y="67"/>
      <point x="182" y="117"/>
      <point x="182" y="232" type="curve"/>
    </contour>
    <contour>
      <point x="90" y="122" type="line"/>
      <point x="90" y="94"/>
      <point x="88" y="73"/>
      <point x="83" y="44" type="curve" smooth="yes"/>
      <point x="75" y="0" type="line"/>
      <point x="161" y="0" type="line"/>
      <point x="181" y="95" type="line"/>
      <point x="182" y="132" type="line"/>
      <point x="182" y="735" type="line"/>
      <point x="90" y="715" type="line"/>
    </contour>
  </outline>
</glyph>
<glyph name="c" format="1">
  <advance width="504"/>
  <unicode hex="0063"/>
  <outline>
    <contour>
      <point x="149" y="252" type="curve" smooth="yes"/>
      <point x="149" y="372"/>
      <point x="220" y="441"/>
      <point x="302" y="441" type="curve"/>
      <point x="349" y="441"/>
      <point x="386" y="422"/>
      <point x="411" y="393" type="curve"/>
      <point x="467" y="460" type="line"/>
      <point x="427" y="502"/>
      <point x="365" y="525"/>
      <point x="306" y="525" type="curve"/>
      <point x="166" y="525"/>
      <point x="55" y="421"/>
      <point x="55" y="252" type="curve" smooth="yes"/>
      <point x="55" y="77"/>
      <point x="161" y="-11"/>
      <point x="301" y="-11" type="curve"/>
      <point x="365" y="-11"/>
      <point x="429" y="12"/>
      <point x="469" y="54" type="curve"/>
      <point x="416" y="121" type="line"/>
      <point x="389" y="93"/>
      <point x="349" y="73"/>
      <point x="297" y="73" type="curve"/>
      <point x="218" y="73"/>
      <point x="149" y="132"/>
    </contour>
  </outline>
</glyph>
<glyph name="e" format="1">
  <advance width="553"/>
  <unicode hex="0065"/>
  <outline>
    <contour>
      <point x="498" y="267" type="curve"/>
      <point x="498" y="439"/>
      <point x="403" y="525"/>
      <point x="285" y="525" type="curve"/>
      <point x="157" y="525"/>
      <point x="55" y="432"/>
      <point x="55" y="252" type="curve" smooth="yes"/>
      <point x="55" y="77"/>
      <point x="162" y="-11"/>
      <point x="306" y="-11" type="curve" smooth="yes"/>
      <point x="367" y="-11"/>
      <point x="425" y="5"/>
      <point x="471" y="42" type="curve"/>
      <point x="428" y="115" type="line"/>
      <point x="397" y="91"/>
      <point x="357" y="73"/>
      <point x="309" y="73" type="curve"/>
      <point x="219" y="73"/>
      <point x="149" y="134"/>
      <point x="149" y="252" type="curve" smooth="yes"/>
      <point x="149" y="379"/>
      <point x="204" y="444"/>
      <point x="284" y="444" type="curve"/>
      <point x="352" y="444"/>
      <point x="408" y="395"/>
      <point x="408" y="267" type="curve"/>
      <point x="408" y="267"/>
      <point x="426" y="304"/>
      <point x="426" y="304" type="curve"/>
      <point x="134" y="304" type="line"/>
      <point x="134" y="230" type="line"/>
      <point x="496" y="230" type="line"/>
      <point x="497" y="242"/>
      <point x="498" y="255"/>
    </contour>
    <contour>
      <point x="285" y="515" type="move" name="top"/>
    </contour>
  </outline>
</glyph>
<glyph name="f" format="1">
  <advance width="361"/>
  <unicode hex="0066"/>
  <outline>
    <contour>
      <point x="110" y="0" type="line"/>
      <point x="202" y="0" type="line"/>
      <point x="202" y="554" type="line" smooth="yes"/>
      <point x="202.0" y="613.3855421686746"/>
      <point x="229" y="651"/>
      <point x="285" y="651" type="curve" smooth="yes"/>
      <point x="310" y="651"/>
      <point x="335" y="645"/>
      <point x="363" y="633" type="curve"/>
      <point x="381" y="707" type="line"/>
      <point x="349" y="721"/>
      <point x="313" y="730"/>
      <point x="272" y="730" type="curve" smooth="yes"/>
      <point x="183" y="730"/>
      <point x="110.0" y="667.3803680981595"/>
      <point x="110" y="557" type="curve" smooth="yes"/>
    </contour>
    <contour>
      <point x="20" y="515" type="line"/>
      <point x="20" y="435" type="line"/>
      <point x="354" y="435" type="line"/>
      <point x="354" y="515" type="line"/>
    </contour>
  </outline>
</glyph>
<glyph name="j" format="1">
  <advance width="272"/>
  <unicode hex="006A"/>
  <outline>
    <contour>
      <point x="90" y="-30" type="line" smooth="yes"/>
      <point x="90" y="-88"/>
      <point x="64" y="-114"/>
      <point x="18" y="-114" type="curve"/>
      <point x="-2" y="-114"/>
      <point x="-19" y="-110"/>
      <point x="-35" y="-105" type="curve"/>
      <point x="-51" y="-181" type="line"/>
      <point x="-30" y="-189"/>
      <point x="-3" y="-195"/>
      <point x="24" y="-195" type="curve"/>
      <point x="114" y="-195"/>
      <point x="182" y="-134"/>
      <point x="182" y="-34" type="curve" smooth="yes"/>
      <point x="182" y="515" type="line"/>
      <point x="90" y="515" type="line"/>
    </contour>
    <contour>
      <point x="136" y="605" type="curve" smooth="yes"/>
      <point x="173" y="605"/>
      <point x="197" y="632"/>
      <point x="197" y="667" type="curve" smooth="yes"/>
      <point x="197" y="703"/>
      <point x="173" y="730"/>
      <point x="136" y="730" type="curve" smooth="yes"/>
      <point x="101" y="730"/>
      <point x="75" y="703"/>
      <point x="75" y="667" type="curve" smooth="yes"/>
      <point x="75" y="632"/>
      <point x="101" y="605"/>
    </contour>
  </outline>
</glyph>
<glyph name="l" format="1">
  <advance width="272"/>
  <unicode hex="006C"/>
  <outline>
    <contour>
      <point x="90" y="0" type="line"/>
      <point x="182" y="0" type="line"/>
      <point x="182" y="735" type="line"/>
      <point x="90" y="715" type="line"/>
    </contour>
  </outline>
</glyph>
<glyph name="m" format="1">
  <advance width="881"/>
  <unicode hex="006D"/>
  <outline>
    <contour>
      <point x="75" y="515" type="line"/>
      <point x="83" y="471" type="line" smooth="yes"/>
      <point x="88" y="442"/>
      <point x="90" y="421"/>
      <point x="90" y="393" type="curve" smooth="yes"/>
      <point x="90" y="0" type="line"/>
      <point x="182" y="0" type="line"/>
      <point x="182" y="383" type="line"/>
      <point x="181" y="420" type="line"/>
      <point x="161" y="515" type="line"/>
    </contour>
    <contour>
      <point x="167" y="358" type="line"/>
      <point x="207" y="408"/>
      <point x="252" y="438"/>
      <point x="299" y="438" type="curve"/>
      <point x="355" y="438"/>
      <point x="397" y="403"/>
      <point x="397" y="313" type="curve" smooth="yes"/>
      <point x="397" y="0" type="line"/>
      <point x="489" y="0" type="line"/>
      <point x="489" y="325" type="line" smooth="yes"/>
      <point x="489" y="463"/>
      <point x="418" y="525"/>
      <point x="331" y="525" type="curve" smooth="yes"/>
      <point x="264" y="525"/>
      <point x="207" y="486"/>
      <point x="167" y="430" type="curve"/>
    </contour>
    <contour>
      <point x="465" y="428" type="curve"/>
      <point x="474" y="358" type="line"/>
      <point x="514" y="408"/>
      <point x="559" y="438"/>
      <point x="606" y="438" type="curve"/>
      <point x="662" y="438"/>
      <point x="704" y="403"/>
      <point x="704" y="313" type="curve" smooth="yes"/>
      <point x="704" y="0" type="line"/>
      <point x="796" y="0" type="line"/>
      <point x="796" y="325" type="line" smooth="yes"/>
      <point x="796" y="463"/>
      <point x="725" y="525"/>
      <point x="638" y="525" type="curve" smooth="yes"/>
      <point x="567" y="525"/>
      <point x="507" y="485"/>
    </contour>
  </outline>
</glyph>
<glyph name="n" format="1">
  <advance width="604"/>
  <unicode hex="006E"/>
  <outline>
    <contour>
      <point x="75" y="515" type="line"/>
      <point x="83" y="471" type="line" smooth="yes"/>
      <point x="88" y="442"/>
      <point x="90" y="421"/>
      <point x="90" y="393" type="curve" smooth="yes"/>
      <point x="90" y="0" type="line"/>
      <point x="182" y="0" type="line"/>
      <point x="182" y="383" type="line"/>
      <point x="181" y="420" type="line"/>
      <point x="161" y="515" type="line"/>
    </contour>
    <contour>
      <point x="167" y="358" type="line"/>
      <point x="211" y="408"/>
      <point x="263" y="438"/>
      <point x="316" y="438" type="curve"/>
      <point x="380" y="438"/>
      <point x="427" y="397"/>
      <point x="427" y="304" type="curve" smooth="yes"/>
      <point x="427" y="0" type="line"/>
      <point x="519" y="0" type="line"/>
      <point x="519" y="316" type="line" smooth="yes"/>
      <point x="519" y="457"/>
      <point x="442" y="525"/>
      <point x="340" y="525" type="curve"/>
      <point x="273" y="525"/>
      <point x="211" y="486"/>
      <point x="167" y="430" type="curve"/>
    </contour>
    <contour>
      <point x="314" y="515" type="move" name="top"/>
    </contour>
  </outline>
</glyph>
<glyph name="o" format="1">
  <advance width="572"/>
  <unicode hex="006F"/>
  <outline>
    <contour>
      <point x="286" y="-10" type="curve" smooth="yes"/>
      <point x="420" y="-10"/>
      <point x="517" y="84"/>
      <point x="517" y="257" type="curve" smooth="yes"/>
      <point x="517" y="430"/>
      <point x="420" y="525"/>
      <point x="286" y="525" type="curve" smooth="yes"/>
      <point x="152" y="525"/>
      <point x="55" y="430"/>
      <point x="55" y="257" type="curve" smooth="yes"/>
      <point x="55" y="84"/>
      <point x="152" y="-10"/>
    </contour>
    <contour>
      <point x="286" y="71" type="curve" smooth="yes"/>
      <point x="200" y="71"/>
      <point x="149" y="137"/>
      <point x="149" y="257" type="curve" smooth="yes"/>
      <point x="149" y="377"/>
      <point x="200" y="444"/>
      <point x="286" y="444" type="curve" smooth="yes"/>
      <point x="372" y="444"/>
      <point x="423" y="377"/>
      <point x="423" y="257" type="curve" smooth="yes"/>
      <point x="423" y="137"/>
      <point x="372" y="71"/>
    </contour>
    <contour>
      <point x="286" y="515" type="move" name="top"/>
    </contour>
  </outline>
</glyph>
<glyph name="p" format="1">
  <advance width="586"/>
  <unicode hex="0070"/>
  <outline>
    <contour>
      <point x="75" y="515" type="line"/>
      <point x="83" y="471" type="line" smooth="yes"/>
      <point x="88" y="442"/>
      <point x="90" y="421"/>
      <point x="90" y="393" type="curve" smooth="yes"/>
      <point x="90" y="-200" type="line"/>
      <point x="182" y="-180" type="line"/>
      <point x="182" y="383" type="line"/>
      <point x="181" y="420" type="line"/>
      <point x="161" y="515" type="line"/>
    </contour>
    <contour>
      <point x="142" y="222" type="line"/>
      <point x="142" y="54"/>
      <point x="232" y="-10"/>
      <point x="318" y="-10" type="curve"/>
      <point x="447" y="-10"/>
      <point x="531" y="92"/>
      <point x="531" y="262" type="curve" smooth="yes"/>
      <point x="531" y="426"/>
      <point x="444.4945054945056" y="525.0"/>
      <point x="339" y="525" type="curve" smooth="yes"/>
      <point x="273" y="525"/>
      <point x="211" y="486"/>
      <point x="167" y="430" type="curve"/>
      <point x="167" y="358" type="line"/>
      <point x="211" y="408"/>
      <point x="261" y="440"/>
      <point x="314" y="440" type="curve" smooth="yes"/>
      <point x="383.66371681415933" y="440.0"/>
      <point x="437.0" y="376.2386363636364"/>
      <point x="437" y="259" type="curve" smooth="yes"/>
      <point x="437.0" y="145.94416243654823"/>
      <point x="386" y="67"/>
      <point x="303" y="67" type="curve"/>
      <point x="243" y="67"/>
      <point x="182" y="117"/>
      <point x="182" y="232" type="curve"/>
    </contour>
  </outline>
</glyph>
<glyph name="t" format="1">
  <advance width="394"/>
  <unicode hex="0074"/>
  <outline>
    <contour>
      <point x="110" y="634" type="line"/>
      <point x="110" y="152" type="line" smooth="yes"/>
      <point x="110" y="48"/>
      <point x="180" y="-10"/>
      <point x="264" y="-10" type="curve"/>
      <point x="300" y="-10"/>
      <point x="337" y="-1"/>
      <point x="369" y="11" type="curve"/>
      <point x="353" y="90" type="line"/>
      <point x="325" y="79"/>
      <point x="302" y="73"/>
      <point x="280" y="73" type="curve"/>
      <point x="226" y="73"/>
      <point x="202" y="103"/>
      <point x="202" y="156" type="curve" smooth="yes"/>
      <point x="202" y="654" type="line"/>
    </contour>
    <contour>
      <point x="20" y="435" type="line"/>
      <point x="354" y="435" type="line"/>
      <point x="354" y="515" type="line"/>
      <point x="20" y="515" type="line"/>
    </contour>
  </outline>
</glyph>
<glyph name="x" format="1">
  <advance width="529"/>
  <unicode hex="0078"/>
  <outline>
    <contour>
      <point x="30" y="0" type="line"/>
      <point x="133" y="0" type="line"/>
      <point x="272" y="210" type="line"/>
      <point x="303" y="246" type="line"/>
      <point x="489" y="515" type="line"/>
      <point x="386" y="515" type="line"/>
      <point x="255" y="317" type="line"/>
      <point x="225" y="283" type="line"/>
    </contour>
    <contour>
      <point x="40" y="515" type="line"/>
      <point x="236" y="228" type="line"/>
      <point x="391" y="0" type="line"/>
      <point x="499" y="0" type="line"/>
      <point x="293" y="302" type="line"/>
      <point x="148" y="515" type="line"/>
    </contour>
  </outline>
</glyph>
<glyph name="z" format="1">
  <advance width="504"/>
  <unicode hex="007A"/>
  <outline>
    <contour>
      <point x="60" y="435" type="line"/>
      <point x="395" y="435" type="line"/>
      <point x="444" y="455" type="line"/>
      <point x="444" y="515" type="line"/>
      <point x="60" y="515" type="line"/>
    </contour>
    <contour>
      <point x="375" y="515" type="line"/>
      <point x="50" y="60" type="line"/>
      <point x="119" y="0" type="line"/>
      <point x="444" y="455" type="line"/>
    </contour>
    <contour>
      <point x="50" y="0" type="line"/>
      <point x="454" y="0" type="line"/>
      <point x="454" y="80" type="line"/>
      <point x="96" y="80" type="line"/>
      <point x="50" y="60" type="line"/>
    </contour>
  </outline>
</glyph>
<glyph name="asciitilde" format="1">
  <advance width="660"/>
  <unicode hex="007E"/>
  <outline>
    <contour>
      <point x="113" y="301" type="curve"/>
      <point x="176" y="301" type="line"/>
      <point x="185" y="364"/>
      <point x="205" y="384"/>
      <point x="235" y="384" type="curve" smooth="yes"/>
      <point x="295" y="384"/>
      <point x="330" y="296"/>
      <point x="416" y="296" type="curve"/>
      <point x="489" y="296"/>
      <point x="536" y="355"/>
      <point x="547" y="456" type="curve"/>
      <point x="484" y="456" type="line"/>
      <point x="475" y="393"/>
      <point x="455" y="373"/>
      <point x="425" y="373" type="curve" smooth="yes"/>
      <point x="367" y="373"/>
      <point x="331" y="461"/>
      <point x="244" y="461" type="curve"/>
      <point x="170" y="461"/>
      <point x="124" y="402"/>
    </contour>
  </outline>
</glyph>
<glyph name="exclamdown" format="1">
  <advance width="322"/>
  <unicode hex="00A1"/>
  <outline>
    <contour>
      <point x="212" y="-185" type="line"/>
      <point x="212" y="0" type="line"/>
      <point x="196" y="305" type="line"/>
      <point x="126" y="305" type="line"/>
      <point x="110" y="0" type="line"/>
      <point x="110" y="-185" type="line"/>
    </contour>
    <component base="period" xScale="-1" yScale="-1" xOffset="272" yOffset="515"/>
  </outline>
</glyph>
<glyph name="yen" format="1">
  <advance width="660"/>
  <unicode hex="00A5"/>
  <outline>
    <contour>
      <point x="37" y="690" type="line"/>
      <point x="290" y="300" type="line"/>
      <point x="345" y="300" type="line"/>
      <point x="349" y="366" type="line"/>
      <point x="149" y="690" type="line"/>
    </contour>
    <contour>
      <point x="117" y="163" type="line"/>
      <point x="543" y="163" type="line"/>
      <point x="543" y="239" type="line"/>
      <point x="117" y="239" type="line"/>
    </contour>
    <contour>
      <point x="117" y="308" type="line"/>
      <point x="543" y="308" type="line"/>
      <point x="543" y="384" type="line"/>
      <point x="117" y="384" type="line"/>
    </contour>
    <contour>
      <point x="282" y="0" type="line"/>
      <point x="378" y="0" type="line"/>
      <point x="378" y="350" type="line"/>
      <point x="282" y="350" type="line"/>
    </contour>
    <contour>
      <point x="315" y="366" type="line"/>
      <point x="323" y="300" type="line"/>
      <point x="370" y="300" type="line"/>
      <point x="623" y="690" type="line"/>
      <point x="515" y="690" type="line"/>
    </contour>
  </outline>
</glyph>
<glyph name="logicalnot" format="1">
  <advance width="660"/>
  <unicode hex="00AC"/>
  <outline>
    <contour>
      <point x="103" y="250" type="line"/>
      <point x="557" y="250" type="line"/>
      <point x="557" y="330" type="line"/>
      <point x="103" y="330" type="line"/>
    </contour>
    <contour>
      <point x="475" y="330" type="line"/>
      <point x="475" y="65" type="line"/>
      <point x="557" y="65" type="line"/>
      <point x="557" y="330" type="line"/>
    </contour>
  </outline>
</glyph>
<glyph name="plusminus" format="1">
  <advance width="660"/>
  <unicode hex="00B1"/>
  <outline>
    <contour>
      <point x="103" y="65" type="line"/>
      <point x="557" y="65" type="line"/>
      <point x="557" y="145" type="line"/>
      <point x="103" y="145" type="line"/>
    </contour>
    <contour>
      <point x="103" y="280" type="line"/>
      <point x="557" y="280" type="line"/>
      <point x="557" y="360" type="line"/>
      <point x="103" y="360" type="line"/>
    </contour>
    <contour>
      <point x="288" y="65" type="line"/>
      <point x="372" y="65" type="line"/>
      <point x="372" y="515" type="line"/>
      <point x="288" y="515" type="line"/>
    </contour>
  </outline>
</glyph>
<glyph name="acute" format="1">
  <advance width="600"/>
  <unicode hex="00B4"/>
  <outline>
    <contour>
      <point x="330" y="740" type="line"/>
      <point x="441" y="740" type="line"/>
      <point x="331" y="590" type="line"/>
      <point x="255" y="590" type="line"/>
    </contour>
    <contour>
      <point x="300" y="515" type="move" name="_top"/>
    </contour>
  </outline>
</glyph>
<glyph name="cedilla" format="1">
  <advance width="600"/>
  <unicode hex="00B8"/>
  <outline>
    <contour>
      <point x="271" y="15" type="line"/>
      <point x="252" y="-83" type="line"/>
      <point x="282" y="-85" type="line" smooth="yes"/>
      <point x="309" y="-87"/>
      <point x="319" y="-96"/>
      <point x="319" y="-110" type="curve"/>
      <point x="319" y="-128"/>
      <point x="304" y="-142"/>
      <point x="234" y="-143" type="curve"/>
      <point x="222" y="-195" type="line"/>
      <point x="252" y="-195" type="line" smooth="yes"/>
      <point x="364" y="-195"/>
      <point x="398" y="-150"/>
      <point x="398" y="-111" type="curve"/>
      <point x="398" y="-75"/>
      <point x="374" y="-50"/>
      <point x="316" y="-45" type="curve"/>
      <point x="325" y="9" type="line"/>
    </contour>
    <contour>
      <point x="300" y="0" type="move" name="_bottom"/>
    </contour>
  </outline>
</glyph>
<glyph name="guillemetright" format="1">
  <advance width="499"/>
  <unicode hex="00BB"/>
  <outline>
    <contour>
      <point x="334" y="83" type="line"/>
      <point x="454" y="247" type="line"/>
      <point x="454" y="292" type="line"/>
      <point x="394" y="293" type="line"/>
      <point x="235" y="83" type="line"/>
    </contour>
    <contour>
      <point x="334" y="458" type="line"/>
      <point x="235" y="458" type="line"/>
      <point x="394" y="248" type="line"/>
      <point x="454" y="249" type="line"/>
      <point x="454" y="294" type="line"/>
    </contour>
    <contour>
      <point x="134" y="83" type="line"/>
      <point x="254" y="247" type="line"/>
      <point x="254" y="292" type="line"/>
      <point x="194" y="293" type="line"/>
      <point x="35" y="83" type="line"/>
    </contour>
    <contour>
      <point x="134" y="458" type="line"/>
      <point x="35" y="458" type="line"/>
      <point x="194" y="248" type="line"/>
      <point x="254" y="249" type="line"/>
      <point x="254" y="294" type="line"/>
    </contour>
  </outline>
</glyph>
<glyph name="questiondown" format="1">
  <advance width="508"/>
  <unicode hex="00BF"/>
  <outline>
    <contour>
      <point x="60" y="-5" type="curve"/>
      <point x="60" y="-121"/>
      <point x="151" y="-195"/>
      <point x="262" y="-195" type="curve"/>
      <point x="356" y="-195"/>
      <point x="424" y="-154"/>
      <point x="483" y="-83" type="curve"/>
      <point x="420" y="-17" type="line"/>
      <point x="377" y="-73"/>
      <point x="333" y="-104"/>
      <point x="265" y="-104" type="curve"/>
      <point x="203" y="-104"/>
      <point x="159" y="-62"/>
      <point x="159" y="-5" type="curve"/>
      <point x="159" y="43"/>
      <point x="192" y="73"/>
      <point x="251" y="113" type="curve" smooth="yes"/>
      <point x="294" y="142"/>
      <point x="316" y="177"/>
      <point x="311" y="232" type="curve" smooth="yes"/>
      <point x="305" y="305" type="line"/>
      <point x="226" y="305" type="line"/>
      <point x="223" y="245" type="line" smooth="yes"/>
      <point x="221" y="201"/>
      <point x="211" y="185"/>
      <point x="172" y="162" type="curve" smooth="yes"/>
      <point x="106" y="123"/>
      <point x="60" y="66"/>
    </contour>
    <component base="period" xScale="-1" yScale="-1" xOffset="376" yOffset="515"/>
  </outline>
</glyph>
<glyph name="Eth" format="1">
  <advance width="701"/>
  <unicode hex="00D0"/>
  <outline>
    <contour>
      <point x="30" y="304" type="line"/>
      <point x="354" y="304" type="line"/>
      <point x="354" y="384" type="line"/>
      <point x="30" y="384" type="line"/>
    </contour>
    <component base="D"/>
  </outline>
</glyph>
<glyph name="multiply" format="1">
  <advance width="660"/>
  <unicode hex="00D7"/>
  <outline>
    <contour>
      <point x="113" y="452" type="line"/>
      <point x="492" y="73" type="line"/>
      <point x="547" y="128" type="line"/>
      <point x="168" y="507" type="line"/>
    </contour>
    <contour>
      <point x="113" y="132" type="line"/>
      <point x="172" y="73" type="line"/>
      <point x="547" y="448" type="line"/>
      <point x="488" y="507" type="line"/>
    </contour>
  </outline>
</glyph>
<glyph name="Oslash" format="1">
  <advance width="726"/>
  <unicode hex="00D8"/>
  <outline>
    <contour>
      <point x="96" y="-10" type="line"/>
      <point x="686" y="649" type="line"/>
      <point x="630" y="700" type="line"/>
      <point x="40" y="41" type="line"/>
    </contour>
    <component base="O"/>
  </outline>
</glyph>
<glyph name="Thorn" format="1">
  <advance width="632"/>
  <unicode hex="00DE"/>
  <outline>
    <contour>
      <point x="343" y="135" type="line" smooth="yes"/>
      <point x="475.67322834645665" y="135.0"/>
      <point x="582.0" y="208.95652173913044"/>
      <point x="582" y="345" type="curve" smooth="yes"/>
      <point x="582.0" y="481.0434782608695"/>
      <point x="475.67322834645665" y="555.0"/>
      <point x="343" y="555" type="curve" smooth="yes"/>
      <point x="150" y="555" type="line"/>
      <point x="150" y="469" type="line"/>
      <point x="338" y="469" type="line" smooth="yes"/>
      <point x="421.375" y="469.0"/>
      <point x="483.0" y="425.08333333333337"/>
      <point x="483" y="345" type="curve" smooth="yes"/>
      <point x="483.0" y="264.91666666666663"/>
      <point x="420.46875" y="221.0"/>
      <point x="338" y="221" type="curve" smooth="yes"/>
      <point x="150" y="221" type="line"/>
      <point x="150" y="135" type="line"/>
    </contour>
    <contour>
      <point x="100" y="690" type="line"/>
      <point x="100" y="0" type="line"/>
      <point x="196" y="0" type="line"/>
      <point x="196" y="690" type="line"/>
    </contour>
  </outline>
</glyph>
<glyph name="divide" format="1">
  <advance width="660"/>
  <unicode hex="00F7"/>
  <outline>
    <contour>
      <point x="103" y="250" type="line"/>
      <point x="557" y="250" type="line"/>
      <point x="557" y="330" type="line"/>
      <point x="103" y="330" type="line"/>
    </contour>
    <component base="period" xOffset="219" yOffset="410"/>
    <component base="period" yScale="-1" xOffset="219" yOffset="170"/>
  </outline>
</glyph>
<glyph name="circumflex" format="1">
  <advance width="600"/>
  <unicode hex="02C6"/>
  <outline>
    <contour>
      <point x="249" y="740" type="line"/>
      <point x="345" y="740" type="line"/>
      <point x="239" y="590" type="line"/>
      <point x="162" y="590" type="line"/>
    </contour>
    <contour>
      <point x="351" y="740" type="line"/>
      <point x="438" y="590" type="line"/>
      <point x="361" y="590" type="line"/>
      <point x="255" y="740" type="line"/>
    </contour>
    <contour>
      <point x="300" y="515" type="move" name="_top"/>
    </contour>
  </outline>
</glyph>
<glyph name="caron" format="1">
  <advance width="600"/>
  <unicode hex="02C7"/>
  <outline>
    <contour>
      <point x="351" y="590" type="line"/>
      <point x="255" y="590" type="line"/>
      <point x="361" y="740" type="line"/>
      <point x="438" y="740" type="line"/>
    </contour>
    <contour>
      <point x="249" y="590" type="line"/>
      <point x="162" y="740" type="line"/>
      <point x="239" y="740" type="line"/>
      <point x="345" y="590" type="line"/>
    </contour>
    <contour>
      <point x="300.0" y="515.0" type="move" name="_top"/>
    </contour>
  </outline>
</glyph>
<glyph name="breve" format="1">
  <advance width="600"/>
  <unicode hex="02D8"/>
  <outline>
    <contour>
      <point x="300" y="666" type="curve"/>
      <point x="261" y="666"/>
      <point x="237" y="690"/>
      <point x="231" y="740" type="curve"/>
      <point x="161" y="740" type="line"/>
      <point x="170" y="642"/>
      <point x="222" y="590"/>
      <point x="300" y="590" type="curve"/>
      <point x="378" y="590"/>
      <point x="430" y="642"/>
      <point x="439" y="740" type="curve"/>
      <point x="369" y="740" type="line"/>
      <point x="363" y="690"/>
      <point x="339" y="666"/>
    </contour>
    <contour>
      <point x="300.0" y="515.0" type="move" name="_top"/>
    </contour>
  </outline>
</glyph>
<glyph name="tilde" format="1">
  <advance width="600"/>
  <unicode hex="02DC"/>
  <outline>
    <contour>
      <point x="154" y="605" type="curve"/>
      <point x="214" y="605" type="line"/>
      <point x="218" y="639"/>
      <point x="230" y="649"/>
      <point x="244" y="649" type="curve"/>
      <point x="274" y="649"/>
      <point x="304" y="600"/>
      <point x="357" y="600" type="curve"/>
      <point x="409" y="600"/>
      <point x="440" y="644"/>
      <point x="446" y="720" type="curve"/>
      <point x="386" y="720" type="line"/>
      <point x="382" y="686"/>
      <point x="370" y="676"/>
      <point x="356" y="676" type="curve"/>
      <point x="326" y="676"/>
      <point x="296" y="725"/>
      <point x="243" y="725" type="curve"/>
      <point x="191" y="725"/>
      <point x="160" y="681"/>
    </contour>
    <contour>
      <point x="300" y="515" type="move" name="_top"/>
    </contour>
  </outline>
</glyph>
<glyph name="guilsinglleft" format="1">
  <advance width="299"/>
  <unicode hex="2039"/>
  <outline>
    <contour>
      <point x="45" y="247" type="line"/>
      <point x="165" y="83" type="line"/>
      <point x="264" y="83" type="line"/>
      <point x="105" y="293" type="line"/>
      <point x="45" y="292" type="line"/>
    </contour>
    <contour>
      <point x="45" y="249" type="line"/>
      <point x="105" y="248" type="line"/>
      <point x="264" y="458" type="line"/>
      <point x="165" y="458" type="line"/>
      <point x="45" y="294" type="line"/>
    </contour>
  </outline>
</glyph>
<glyph name=".notdef" format="1">
  <advance width="592"/>
  <outline>
    <contour>
      <point x="100" y="690" type="line"/>
      <point x="100" y="-185" type="line"/>
      <point x="182" y="-185" type="line"/>
      <point x="182" y="690" type="line"/>
    </contour>
    <contour>
      <point x="410" y="690" type="line"/>
      <point x="410" y="-185" type="line"/>
      <point x="492" y="-185" type="line"/>
      <point x="492" y="690" type="line"/>
    </contour>
    <contour>
      <point x="147" y="690" type="line"/>
      <point x="147" y="614" type="line"/>
      <point x="445" y="614" type="line"/>
      <point x="445" y="690" type="line"/>
    </contour>
    <contour>
      <point x="147" y="-109" type="line"/>
      <point x="147" y="-185" type="line"/>
      <point x="445" y="-185" type="line"/>
      <point x="445" y="-109" type="line"/>
    </contour>
  </outline>
</glyph>
<glyph name="circumflex.cap" format="1">
  <advance width="600"/>
  <outline>
    <contour>
      <point x="244" y="885" type="line"/>
      <point x="354" y="885" type="line"/>
      <point x="230" y="750" type="line"/>
      <point x="148" y="750" type="line"/>
    </contour>
    <contour>
      <point x="356" y="885" type="line"/>
      <point x="452" y="750" type="line"/>
      <point x="370" y="750" type="line"/>
      <point x="246" y="885" type="line"/>
    </contour>
    <contour>
      <point x="300" y="690" type="move" name="_top"/>
    </contour>
  </outline>
</glyph>
<glyph name="grave.cap" format="1">
  <advance width="600"/>
  <outline>
    <contour>
      <point x="245" y="885" type="line"/>
      <point x="354" y="750" type="line"/>
      <point x="265" y="750" type="line"/>
      <point x="124" y="885" type="line"/>
    </contour>
    <contour>
      <point x="300" y="690" type="move" name="_top"/>
    </contour>
  </outline>
</glyph>
<glyph name="ring.cap" format="1">
  <advance width="600"/>
  <outline>
    <contour>
      <point x="300" y="740" type="curve" smooth="yes"/>
      <point x="365.0" y="740.0"/>
      <point x="417.0" y="781.9649122807018"/>
      <point x="417" y="844" type="curve" smooth="yes"/>
      <point x="417.0" y="906.0"/>
      <point x="365.0" y="948.0"/>
      <point x="300" y="948" type="curve" smooth="yes"/>
      <point x="235.0" y="948.0"/>
      <point x="184.0" y="906.0"/>
      <point x="184" y="844" type="curve" smooth="yes"/>
      <point x="184.0" y="781.9649122807018"/>
      <point x="235.0" y="740.0"/>
    </contour>
    <contour>
      <point x="300" y="795" type="curve" smooth="yes"/>
      <point x="271.0" y="795.0"/>
      <point x="250.0" y="812.4406779661017"/>
      <point x="250" y="844" type="curve" smooth="yes"/>
      <point x="250.0" y="875.0"/>
      <point x="271.0" y="893.0"/>
      <point x="300" y="893" type="curve" smooth="yes"/>
      <point x="330.0" y="893.0"/>
      <point x="351.0" y="875.0"/>
      <point x="351" y="844" type="curve" smooth="yes"/>
      <point x="351.0" y="812.4406779661017"/>
      <point x="330.0" y="795.0"/>
    </contour>
    <contour>
      <point x="300" y="690" type="move" name="_top"/>
    </contour>
  </outline>
</glyph>
<glyph name="tilde.cap" format="1">
  <advance width="600"/>
  <outline>
    <contour>
      <point x="139" y="761" type="curve"/>
      <point x="199" y="761" type="line"/>
      <point x="203.66666666666666" y="795.0"/>
      <point x="218" y="808"/>
      <point x="234" y="808" type="curve" smooth="yes"/>
      <point x="270" y="808"/>
      <point x="312" y="756"/>
      <point x="367" y="756" type="curve" smooth="yes"/>
      <point x="419" y="756"/>
      <point x="452" y="800"/>
      <point x="461" y="876" type="curve"/>
      <point x="401" y="876" type="line"/>
      <point x="396.3333333333333" y="842.0"/>
      <point x="382" y="829"/>
      <point x="366" y="829" type="curve" smooth="yes"/>
      <point x="331" y="829"/>
      <point x="289" y="881"/>
      <point x="233" y="881" type="curve" smooth="yes"/>
      <point x="181" y="881"/>
      <point x="148" y="837"/>
    </contour>
    <contour>
      <point x="300" y="690" type="move" name="_top"/>
    </contour>
  </outline>
</glyph>
<glyph name="u.ss01" format="1">
  <advance width="600"/>
  <outline>
    <contour>
      <point x="510" y="100" type="curve" smooth="yes"/>
      <point x="510" y="515" type="line"/>
      <point x="418" y="515" type="line"/>
      <point x="418" y="132" type="line"/>
      <point x="424" y="79" type="line"/>
      <point x="428" y="16"/>
      <point x="465" y="-10"/>
      <point x="508" y="-10" type="curve"/>
      <point x="523" y="-10"/>
      <point x="542" y="-6"/>
      <point x="556" y="0" type="curve"/>
      <point x="556" y="75" type="line"/>
      <point x="548" y="72"/>
      <point x="543" y="71"/>
      <point x="535" y="71" type="curve"/>
      <point x="520" y="71"/>
      <point x="510" y="79"/>
    </contour>
    <contour>
      <point x="433" y="157" type="line"/>
      <point x="389" y="107"/>
      <point x="339" y="77"/>
      <point x="286" y="77" type="curve"/>
      <point x="222" y="77"/>
      <point x="177" y="118"/>
      <point x="177" y="211" type="curve" smooth="yes"/>
      <point x="177" y="515" type="line"/>
      <point x="85" y="515" type="line"/>
      <point x="85" y="199" type="line" smooth="yes"/>
      <point x="85" y="58"/>
      <point x="160" y="-10"/>
      <point x="262" y="-10" type="curve"/>
      <point x="329" y="-10"/>
      <point x="389" y="29"/>
      <point x="433" y="85" type="curve"/>
    </contour>
    <contour>
      <point x="298" y="515" type="move" name="top"/>
    </contour>
  </outline>
</glyph>
